<svg width="13" height="12" viewBox="0 0 13 12" fill="none" xmlns="http://www.w3.org/2000/svg">
<path fill-rule="evenodd" clip-rule="evenodd" d="M11.8599 0.146009C11.9064 0.192454 11.9432 0.24763 11.9684 0.308375C11.9935 0.36912 12.0064 0.434242 12.0064 0.500009C12.0064 0.565776 11.9935 0.630897 11.9684 0.691643C11.9432 0.752388 11.9064 0.807563 11.8599 0.854009L0.890411 11.854C0.796785 11.9479 0.6698 12.0006 0.537392 12.0006C0.404984 12.0006 0.277999 11.9479 0.184372 11.854C0.0907457 11.7601 0.038147 11.6328 0.038147 11.5C0.038147 11.3672 0.0907457 11.2399 0.184372 11.146L11.1539 0.146009C11.2002 0.0994455 11.2552 0.0625027 11.3158 0.0372963C11.3764 0.0120898 11.4413 -0.00088501 11.5069 -0.00088501C11.5725 -0.00088501 11.6374 0.0120898 11.698 0.0372963C11.7586 0.0625027 11.8136 0.0994455 11.8599 0.146009V0.146009Z" fill="white"/>
<path fill-rule="evenodd" clip-rule="evenodd" d="M0.184374 0.146009C0.13794 0.192454 0.1011 0.24763 0.0759631 0.308375C0.0508265 0.36912 0.0378876 0.434242 0.0378876 0.500009C0.0378876 0.565776 0.0508265 0.630897 0.0759631 0.691643C0.1011 0.752388 0.13794 0.807563 0.184374 0.854009L11.1539 11.854C11.2475 11.9479 11.3745 12.0006 11.5069 12.0006C11.6393 12.0006 11.7663 11.9479 11.8599 11.854C11.9536 11.7601 12.0062 11.6328 12.0062 11.5C12.0062 11.3672 11.9536 11.2399 11.8599 11.146L0.890413 0.146009C0.844096 0.0994455 0.789074 0.0625027 0.728497 0.0372963C0.66792 0.0120898 0.602979 -0.00088501 0.537394 -0.00088501C0.471809 -0.00088501 0.406868 0.0120898 0.346291 0.0372963C0.285714 0.0625027 0.230691 0.0994455 0.184374 0.146009V0.146009Z" fill="white"/>
</svg>
