<svg width="95" height="24" viewBox="0 0 95 24" fill="none" xmlns="http://www.w3.org/2000/svg">
<path d="M24.8676 1.31763H30.0229L38.2267 12.4384V1.31763H43.6959V22.3551H38.8544L30.3401 10.8169V22.3551H24.8676V1.31763Z" fill="#282734"/>
<path d="M46.6581 1.31763H62.6949V6.27644H52.1272V9.46223H61.7008V14.0608H52.1272V17.3972H62.8368V22.3551H46.6581V1.31763Z" fill="#282734"/>
<path d="M88.9448 1.31763H94.9999V22.3683H88.9448V1.31763Z" fill="#282734"/>
<path d="M94.9999 1.31763H88.9448V7.70683H94.9999V1.31763Z" fill="#F23DE9"/>
<path d="M11.2155 23.6684C17.4096 23.6684 22.4309 18.3701 22.4309 11.8342C22.4309 5.29835 17.4096 0 11.2155 0C5.02133 0 0 5.29835 0 11.8342C0 18.3701 5.02133 23.6684 11.2155 23.6684Z" fill="#282734"/>
<path d="M11.2153 17.5751C14.2202 17.5751 16.6561 15.0048 16.6561 11.8342C16.6561 8.66357 14.2202 6.09326 11.2153 6.09326C8.21046 6.09326 5.77454 8.66357 5.77454 11.8342C5.77454 15.0048 8.21046 17.5751 11.2153 17.5751Z" fill="#4D4DFF"/>
<path d="M80.6033 22.4207H87.0625L75.9038 1.5127L72.6742 7.56368L80.6033 22.4207Z" fill="#282734"/>
<path d="M71.0183 11.1235L65.0482 22.4205H77.0141L71.0183 11.1235Z" fill="#0DFFFF"/>
</svg>
