<svg width="16" height="16" viewBox="0 0 16 16" fill="none" xmlns="http://www.w3.org/2000/svg">
<path d="M13.5 1.00001C13.1022 1.00001 12.7207 1.15804 12.4394 1.43935C12.1581 1.72065 12 2.10218 12 2.50001C12 2.89783 12.1581 3.27936 12.4394 3.56067C12.7207 3.84197 13.1022 4.00001 13.5 4.00001C13.8978 4.00001 14.2794 3.84197 14.5607 3.56067C14.842 3.27936 15 2.89783 15 2.50001C15 2.10218 14.842 1.72065 14.5607 1.43935C14.2794 1.15804 13.8978 1.00001 13.5 1.00001ZM11 2.50001C10.9999 1.91344 11.2061 1.34552 11.5825 0.895619C11.9589 0.445715 12.4814 0.142472 13.0588 0.0389459C13.6361 -0.0645804 14.2315 0.0382022 14.7408 0.329311C15.25 0.62042 15.6406 1.08132 15.8444 1.63137C16.0481 2.18141 16.0519 2.78559 15.8552 3.33818C15.6585 3.89077 15.2737 4.35659 14.7682 4.65415C14.2627 4.9517 13.6687 5.06204 13.0901 4.96586C12.5115 4.86967 11.9851 4.57309 11.603 4.12801L4.88502 7.248C5.03946 7.73744 5.03946 8.26256 4.88502 8.752L11.603 11.872C12.0069 11.4023 12.5707 11.0993 13.1852 11.0217C13.7997 10.944 14.4212 11.0972 14.9292 11.4517C15.4372 11.8061 15.7955 12.3365 15.9347 12.9401C16.0739 13.5437 15.9841 14.1775 15.6826 14.7186C15.3812 15.2597 14.8896 15.6696 14.3031 15.869C13.7166 16.0683 13.077 16.0428 12.5083 15.7974C11.9396 15.552 11.4822 15.1043 11.2247 14.5409C10.9673 13.9775 10.9282 13.3386 11.115 12.748L4.39702 9.628C4.06446 10.0156 3.62117 10.292 3.1268 10.4201C2.63243 10.5482 2.11069 10.5218 1.63176 10.3445C1.15283 10.1672 0.739697 9.84743 0.447928 9.42829C0.15616 9.00915 -0.000244141 8.5107 -0.000244141 8C-0.000244141 7.48931 0.15616 6.99086 0.447928 6.57172C0.739697 6.15257 1.15283 5.83284 1.63176 5.65553C2.11069 5.47821 2.63243 5.45183 3.1268 5.57992C3.62117 5.70801 4.06446 5.98443 4.39702 6.372L11.115 3.25201C11.0386 3.00867 10.9998 2.75507 11 2.50001ZM2.50002 6.5C2.1022 6.5 1.72067 6.65804 1.43936 6.93934C1.15806 7.22065 1.00002 7.60218 1.00002 8C1.00002 8.39783 1.15806 8.77936 1.43936 9.06066C1.72067 9.34197 2.1022 9.5 2.50002 9.5C2.89785 9.5 3.27938 9.34197 3.56068 9.06066C3.84199 8.77936 4.00002 8.39783 4.00002 8C4.00002 7.60218 3.84199 7.22065 3.56068 6.93934C3.27938 6.65804 2.89785 6.5 2.50002 6.5ZM13.5 12C13.1022 12 12.7207 12.158 12.4394 12.4393C12.1581 12.7206 12 13.1022 12 13.5C12 13.8978 12.1581 14.2794 12.4394 14.5607C12.7207 14.842 13.1022 15 13.5 15C13.8978 15 14.2794 14.842 14.5607 14.5607C14.842 14.2794 15 13.8978 15 13.5C15 13.1022 14.842 12.7206 14.5607 12.4393C14.2794 12.158 13.8978 12 13.5 12Z" fill="#EDEDED"/>
</svg>
