<svg width="13" height="16" viewBox="0 0 13 16" fill="none" xmlns="http://www.w3.org/2000/svg">
<path d="M6.136 15.954C7.092 16.193 7.98 15.47 8.044 14.534C8.116 13.483 8.274 12.518 8.472 11.944C8.597 11.584 8.951 10.931 9.512 10.305C10.069 9.68201 10.794 9.12701 11.643 8.89501C12.315 8.71201 13 8.13001 13 7.28001L13 3.27901C13 2.43401 12.318 1.81501 11.552 1.73401C10.482 1.62001 9.988 1.31901 9.484 1.01101L9.436 0.981005C9.164 0.816005 8.858 0.633005 8.466 0.497005C8.069 0.361005 7.605 0.280005 7 0.280005L3.5 0.280005C2.563 0.280005 1.901 0.757005 1.566 1.344C1.40409 1.62101 1.31659 1.93519 1.312 2.256C1.312 2.408 1.335 2.56801 1.389 2.72C1.188 2.98301 1.009 3.29801 0.901002 3.621C0.791001 3.95101 0.729002 4.38301 0.897002 4.77001C0.828002 4.90001 0.777001 5.03901 0.738002 5.17301C0.661001 5.44301 0.625002 5.741 0.625002 6.03001C0.625002 6.31801 0.661001 6.61501 0.738002 6.88601C0.772982 7.01059 0.819172 7.13175 0.876002 7.24801C0.700901 7.49713 0.588242 7.78469 0.547519 8.08647C0.506796 8.38824 0.5392 8.69538 0.642002 8.982C0.848001 9.57401 1.324 10.082 1.842 10.254C2.689 10.536 3.645 10.53 4.358 10.465C4.50603 10.4517 4.65373 10.435 4.801 10.415C4.4541 11.9006 4.47538 13.4485 4.863 14.924C4.93044 15.1604 5.05981 15.3745 5.23772 15.5442C5.41564 15.7138 5.63565 15.8329 5.875 15.889L6.136 15.954ZM3.5 1.27901L7 1.27901C7.51 1.27901 7.863 1.348 8.14 1.44301C8.421 1.54001 8.646 1.67101 8.916 1.83601L8.956 1.86001C9.511 2.19901 10.154 2.59101 11.446 2.72801C11.779 2.76401 12 3.01801 12 3.27801L12 7.28001C12 7.53401 11.774 7.82301 11.38 7.93001C10.285 8.23001 9.403 8.92601 8.766 9.63801C8.131 10.348 7.702 11.113 7.528 11.616C7.285 12.316 7.121 13.384 7.046 14.466C7.021 14.828 6.686 15.06 6.379 14.984L6.117 14.918C5.957 14.878 5.859 14.775 5.829 14.663C5.42062 13.107 5.47097 11.4661 5.974 9.93801C6.00247 9.85302 6.00758 9.76194 5.98878 9.6743C5.96998 9.58667 5.92797 9.5057 5.86715 9.43986C5.80633 9.37403 5.72892 9.32576 5.64305 9.3001C5.55717 9.27444 5.46597 9.27233 5.379 9.29401L5.376 9.29501L5.362 9.29801L5.304 9.31201C4.96205 9.38462 4.61612 9.43705 4.268 9.46901C3.605 9.52901 2.811 9.52301 2.158 9.30501C1.983 9.247 1.708 9.00501 1.588 8.65501C1.481 8.34701 1.501 7.98501 1.854 7.63301L2.207 7.28001L1.854 6.92601C1.811 6.88301 1.749 6.78501 1.7 6.61101C1.652 6.44401 1.625 6.241 1.625 6.03001C1.625 5.81801 1.652 5.616 1.7 5.44801C1.75 5.274 1.811 5.17601 1.854 5.13301L2.207 4.78001L1.854 4.42601C1.807 4.379 1.745 4.24901 1.849 3.938C1.95737 3.63642 2.12964 3.36182 2.354 3.13301L2.707 2.78L2.354 2.426C2.348 2.421 2.313 2.376 2.313 2.256C2.31744 2.10933 2.35907 1.96618 2.434 1.84C2.599 1.552 2.937 1.28 3.5 1.28L3.5 1.27901Z" fill="#EDEDED"/>
</svg>
